<mxfile host="app.diagrams.net" agent="Mozilla/5.0 (Windows NT 10.0; Win64; x64) AppleWebKit/537.36 (KHTML, like Gecko) Chrome/136.0.0.0 Safari/537.36" version="27.1.4">
  <diagram name="Page-1" id="_XnYWSZElOhBNOkXmPhK">
    <mxGraphModel dx="1141" dy="601" grid="1" gridSize="10" guides="1" tooltips="1" connect="1" arrows="1" fold="1" page="1" pageScale="1" pageWidth="850" pageHeight="1100" math="0" shadow="0">
      <root>
        <mxCell id="0" />
        <mxCell id="1" parent="0" />
        <mxCell id="h0d0ifMiRU4R3UAmkHMF-1" value="" style="ellipse;whiteSpace=wrap;html=1;aspect=fixed;" vertex="1" parent="1">
          <mxGeometry x="360" y="150" width="80" height="80" as="geometry" />
        </mxCell>
        <mxCell id="h0d0ifMiRU4R3UAmkHMF-2" value="" style="ellipse;whiteSpace=wrap;html=1;aspect=fixed;" vertex="1" parent="1">
          <mxGeometry x="360" y="390" width="80" height="80" as="geometry" />
        </mxCell>
        <mxCell id="h0d0ifMiRU4R3UAmkHMF-3" value="" style="ellipse;whiteSpace=wrap;html=1;aspect=fixed;" vertex="1" parent="1">
          <mxGeometry x="540" y="270" width="80" height="80" as="geometry" />
        </mxCell>
        <mxCell id="h0d0ifMiRU4R3UAmkHMF-4" value="O2" style="ellipse;whiteSpace=wrap;html=1;aspect=fixed;" vertex="1" parent="1">
          <mxGeometry x="180" y="270" width="80" height="80" as="geometry" />
        </mxCell>
        <mxCell id="h0d0ifMiRU4R3UAmkHMF-5" value="" style="endArrow=classic;html=1;rounded=0;entryX=1;entryY=1;entryDx=0;entryDy=0;exitX=1;exitY=0;exitDx=0;exitDy=0;" edge="1" parent="1" source="h0d0ifMiRU4R3UAmkHMF-2" target="h0d0ifMiRU4R3UAmkHMF-1">
          <mxGeometry width="50" height="50" relative="1" as="geometry">
            <mxPoint x="428" y="410" as="sourcePoint" />
            <mxPoint x="450" y="360" as="targetPoint" />
          </mxGeometry>
        </mxCell>
        <mxCell id="h0d0ifMiRU4R3UAmkHMF-6" value="" style="endArrow=classic;html=1;rounded=0;exitX=0;exitY=1;exitDx=0;exitDy=0;entryX=1;entryY=0.5;entryDx=0;entryDy=0;" edge="1" parent="1" source="h0d0ifMiRU4R3UAmkHMF-3" target="h0d0ifMiRU4R3UAmkHMF-2">
          <mxGeometry width="50" height="50" relative="1" as="geometry">
            <mxPoint x="400" y="410" as="sourcePoint" />
            <mxPoint x="450" y="360" as="targetPoint" />
          </mxGeometry>
        </mxCell>
        <mxCell id="h0d0ifMiRU4R3UAmkHMF-7" value="" style="endArrow=classic;html=1;rounded=0;exitX=1;exitY=0.5;exitDx=0;exitDy=0;entryX=0;entryY=0;entryDx=0;entryDy=0;" edge="1" parent="1" source="h0d0ifMiRU4R3UAmkHMF-1" target="h0d0ifMiRU4R3UAmkHMF-3">
          <mxGeometry width="50" height="50" relative="1" as="geometry">
            <mxPoint x="400" y="410" as="sourcePoint" />
            <mxPoint x="450" y="360" as="targetPoint" />
          </mxGeometry>
        </mxCell>
        <mxCell id="h0d0ifMiRU4R3UAmkHMF-8" value="" style="endArrow=classic;html=1;rounded=0;exitX=0;exitY=1;exitDx=0;exitDy=0;entryX=0;entryY=0;entryDx=0;entryDy=0;" edge="1" parent="1" source="h0d0ifMiRU4R3UAmkHMF-1" target="h0d0ifMiRU4R3UAmkHMF-2">
          <mxGeometry width="50" height="50" relative="1" as="geometry">
            <mxPoint x="400" y="410" as="sourcePoint" />
            <mxPoint x="450" y="360" as="targetPoint" />
          </mxGeometry>
        </mxCell>
        <mxCell id="h0d0ifMiRU4R3UAmkHMF-9" value="" style="endArrow=classic;html=1;rounded=0;exitX=0;exitY=0.5;exitDx=0;exitDy=0;entryX=1;entryY=1;entryDx=0;entryDy=0;" edge="1" parent="1" source="h0d0ifMiRU4R3UAmkHMF-2" target="h0d0ifMiRU4R3UAmkHMF-4">
          <mxGeometry width="50" height="50" relative="1" as="geometry">
            <mxPoint x="400" y="410" as="sourcePoint" />
            <mxPoint x="450" y="360" as="targetPoint" />
          </mxGeometry>
        </mxCell>
        <mxCell id="h0d0ifMiRU4R3UAmkHMF-10" value="" style="endArrow=classic;html=1;rounded=0;exitX=1;exitY=0;exitDx=0;exitDy=0;entryX=0;entryY=0.5;entryDx=0;entryDy=0;" edge="1" parent="1" source="h0d0ifMiRU4R3UAmkHMF-4" target="h0d0ifMiRU4R3UAmkHMF-1">
          <mxGeometry width="50" height="50" relative="1" as="geometry">
            <mxPoint x="400" y="410" as="sourcePoint" />
            <mxPoint x="450" y="360" as="targetPoint" />
          </mxGeometry>
        </mxCell>
        <mxCell id="h0d0ifMiRU4R3UAmkHMF-11" value="V1" style="text;html=1;align=center;verticalAlign=middle;whiteSpace=wrap;rounded=0;" vertex="1" parent="1">
          <mxGeometry x="390" y="170" width="60" height="30" as="geometry" />
        </mxCell>
        <mxCell id="h0d0ifMiRU4R3UAmkHMF-12" value="V2" style="text;html=1;align=center;verticalAlign=middle;whiteSpace=wrap;rounded=0;" vertex="1" parent="1">
          <mxGeometry x="550" y="295" width="60" height="30" as="geometry" />
        </mxCell>
        <mxCell id="h0d0ifMiRU4R3UAmkHMF-13" value="V0" style="text;html=1;align=center;verticalAlign=middle;whiteSpace=wrap;rounded=0;" vertex="1" parent="1">
          <mxGeometry x="390" y="415" width="60" height="30" as="geometry" />
        </mxCell>
        <mxCell id="h0d0ifMiRU4R3UAmkHMF-14" value="O0" style="text;html=1;align=center;verticalAlign=middle;whiteSpace=wrap;rounded=0;" vertex="1" parent="1">
          <mxGeometry x="350" y="170" width="60" height="30" as="geometry" />
        </mxCell>
        <mxCell id="h0d0ifMiRU4R3UAmkHMF-15" value="O1" style="text;html=1;align=center;verticalAlign=middle;whiteSpace=wrap;rounded=0;" vertex="1" parent="1">
          <mxGeometry x="350" y="415" width="60" height="30" as="geometry" />
        </mxCell>
        <mxCell id="h0d0ifMiRU4R3UAmkHMF-16" value="HV0" style="text;html=1;align=center;verticalAlign=middle;whiteSpace=wrap;rounded=0;" vertex="1" parent="1">
          <mxGeometry x="490" y="385" width="60" height="30" as="geometry" />
        </mxCell>
        <mxCell id="h0d0ifMiRU4R3UAmkHMF-17" value="HV&lt;span style=&quot;background-color: transparent; color: light-dark(rgb(0, 0, 0), rgb(255, 255, 255));&quot;&gt;2&lt;/span&gt;" style="text;html=1;align=center;verticalAlign=middle;whiteSpace=wrap;rounded=0;" vertex="1" parent="1">
          <mxGeometry x="510" y="220" width="60" height="30" as="geometry" />
        </mxCell>
        <mxCell id="h0d0ifMiRU4R3UAmkHMF-18" value="HV1" style="text;html=1;align=center;verticalAlign=middle;whiteSpace=wrap;rounded=0;rotation=-90;" vertex="1" parent="1">
          <mxGeometry x="390" y="240" width="60" height="30" as="geometry" />
        </mxCell>
        <mxCell id="h0d0ifMiRU4R3UAmkHMF-19" value="HO0" style="text;html=1;align=center;verticalAlign=middle;whiteSpace=wrap;rounded=0;" vertex="1" parent="1">
          <mxGeometry x="270" y="190" width="60" height="30" as="geometry" />
        </mxCell>
        <mxCell id="h0d0ifMiRU4R3UAmkHMF-20" value="HO2" style="text;html=1;align=center;verticalAlign=middle;whiteSpace=wrap;rounded=0;" vertex="1" parent="1">
          <mxGeometry x="240" y="380" width="60" height="30" as="geometry" />
        </mxCell>
        <mxCell id="h0d0ifMiRU4R3UAmkHMF-21" value="HO1" style="text;html=1;align=center;verticalAlign=middle;whiteSpace=wrap;rounded=0;rotation=-92;" vertex="1" parent="1">
          <mxGeometry x="330" y="350" width="60" height="30" as="geometry" />
        </mxCell>
        <mxCell id="h0d0ifMiRU4R3UAmkHMF-22" value="" style="endArrow=classic;html=1;rounded=0;exitX=0.938;exitY=0.756;exitDx=0;exitDy=0;dashed=1;dashPattern=1 1;exitPerimeter=0;entryX=0.025;entryY=0.706;entryDx=0;entryDy=0;entryPerimeter=0;" edge="1" parent="1" source="h0d0ifMiRU4R3UAmkHMF-4" target="h0d0ifMiRU4R3UAmkHMF-3">
          <mxGeometry width="50" height="50" relative="1" as="geometry">
            <mxPoint x="400" y="410" as="sourcePoint" />
            <mxPoint x="620" y="330" as="targetPoint" />
          </mxGeometry>
        </mxCell>
        <mxCell id="h0d0ifMiRU4R3UAmkHMF-24" value="" style="endArrow=classic;html=1;rounded=0;exitX=0.031;exitY=0.281;exitDx=0;exitDy=0;entryX=0.988;entryY=0.288;entryDx=0;entryDy=0;dashed=1;dashPattern=1 1;entryPerimeter=0;exitPerimeter=0;" edge="1" parent="1" source="h0d0ifMiRU4R3UAmkHMF-3" target="h0d0ifMiRU4R3UAmkHMF-4">
          <mxGeometry width="50" height="50" relative="1" as="geometry">
            <mxPoint x="290" y="330" as="sourcePoint" />
            <mxPoint x="734" y="330" as="targetPoint" />
          </mxGeometry>
        </mxCell>
        <mxCell id="h0d0ifMiRU4R3UAmkHMF-26" value="FO" style="text;html=1;align=center;verticalAlign=middle;whiteSpace=wrap;rounded=0;" vertex="1" parent="1">
          <mxGeometry x="300" y="230" width="60" height="30" as="geometry" />
        </mxCell>
        <mxCell id="h0d0ifMiRU4R3UAmkHMF-27" value="FV" style="text;html=1;align=center;verticalAlign=middle;whiteSpace=wrap;rounded=0;" vertex="1" parent="1">
          <mxGeometry x="460" y="350" width="60" height="30" as="geometry" />
        </mxCell>
        <mxCell id="h0d0ifMiRU4R3UAmkHMF-28" value="" style="ellipse;whiteSpace=wrap;html=1;aspect=fixed;" vertex="1" parent="1">
          <mxGeometry x="360" y="490" width="80" height="80" as="geometry" />
        </mxCell>
        <mxCell id="h0d0ifMiRU4R3UAmkHMF-29" value="" style="ellipse;whiteSpace=wrap;html=1;aspect=fixed;" vertex="1" parent="1">
          <mxGeometry x="360" y="730" width="80" height="80" as="geometry" />
        </mxCell>
        <mxCell id="h0d0ifMiRU4R3UAmkHMF-30" value="" style="ellipse;whiteSpace=wrap;html=1;aspect=fixed;" vertex="1" parent="1">
          <mxGeometry x="540" y="610" width="80" height="80" as="geometry" />
        </mxCell>
        <mxCell id="h0d0ifMiRU4R3UAmkHMF-31" value="O2" style="ellipse;whiteSpace=wrap;html=1;aspect=fixed;" vertex="1" parent="1">
          <mxGeometry x="180" y="610" width="80" height="80" as="geometry" />
        </mxCell>
        <mxCell id="h0d0ifMiRU4R3UAmkHMF-33" value="" style="endArrow=classic;html=1;rounded=0;exitX=0;exitY=1;exitDx=0;exitDy=0;entryX=1;entryY=0.5;entryDx=0;entryDy=0;" edge="1" parent="1" source="h0d0ifMiRU4R3UAmkHMF-30" target="h0d0ifMiRU4R3UAmkHMF-29">
          <mxGeometry width="50" height="50" relative="1" as="geometry">
            <mxPoint x="400" y="750" as="sourcePoint" />
            <mxPoint x="450" y="700" as="targetPoint" />
          </mxGeometry>
        </mxCell>
        <mxCell id="h0d0ifMiRU4R3UAmkHMF-34" value="" style="endArrow=classic;html=1;rounded=0;exitX=1;exitY=0.5;exitDx=0;exitDy=0;entryX=0;entryY=0;entryDx=0;entryDy=0;" edge="1" parent="1" source="h0d0ifMiRU4R3UAmkHMF-28" target="h0d0ifMiRU4R3UAmkHMF-30">
          <mxGeometry width="50" height="50" relative="1" as="geometry">
            <mxPoint x="400" y="750" as="sourcePoint" />
            <mxPoint x="450" y="700" as="targetPoint" />
          </mxGeometry>
        </mxCell>
        <mxCell id="h0d0ifMiRU4R3UAmkHMF-36" value="" style="endArrow=classic;html=1;rounded=0;exitX=0;exitY=0.5;exitDx=0;exitDy=0;entryX=1;entryY=1;entryDx=0;entryDy=0;" edge="1" parent="1" source="h0d0ifMiRU4R3UAmkHMF-29" target="h0d0ifMiRU4R3UAmkHMF-31">
          <mxGeometry width="50" height="50" relative="1" as="geometry">
            <mxPoint x="400" y="750" as="sourcePoint" />
            <mxPoint x="450" y="700" as="targetPoint" />
          </mxGeometry>
        </mxCell>
        <mxCell id="h0d0ifMiRU4R3UAmkHMF-37" value="" style="endArrow=classic;html=1;rounded=0;exitX=1;exitY=0;exitDx=0;exitDy=0;entryX=0;entryY=0.5;entryDx=0;entryDy=0;" edge="1" parent="1" source="h0d0ifMiRU4R3UAmkHMF-31" target="h0d0ifMiRU4R3UAmkHMF-28">
          <mxGeometry width="50" height="50" relative="1" as="geometry">
            <mxPoint x="400" y="750" as="sourcePoint" />
            <mxPoint x="450" y="700" as="targetPoint" />
          </mxGeometry>
        </mxCell>
        <mxCell id="h0d0ifMiRU4R3UAmkHMF-38" value="V1" style="text;html=1;align=center;verticalAlign=middle;whiteSpace=wrap;rounded=0;" vertex="1" parent="1">
          <mxGeometry x="390" y="510" width="60" height="30" as="geometry" />
        </mxCell>
        <mxCell id="h0d0ifMiRU4R3UAmkHMF-39" value="V2" style="text;html=1;align=center;verticalAlign=middle;whiteSpace=wrap;rounded=0;" vertex="1" parent="1">
          <mxGeometry x="550" y="635" width="60" height="30" as="geometry" />
        </mxCell>
        <mxCell id="h0d0ifMiRU4R3UAmkHMF-40" value="V0" style="text;html=1;align=center;verticalAlign=middle;whiteSpace=wrap;rounded=0;" vertex="1" parent="1">
          <mxGeometry x="390" y="755" width="60" height="30" as="geometry" />
        </mxCell>
        <mxCell id="h0d0ifMiRU4R3UAmkHMF-41" value="O0" style="text;html=1;align=center;verticalAlign=middle;whiteSpace=wrap;rounded=0;" vertex="1" parent="1">
          <mxGeometry x="350" y="510" width="60" height="30" as="geometry" />
        </mxCell>
        <mxCell id="h0d0ifMiRU4R3UAmkHMF-42" value="O1" style="text;html=1;align=center;verticalAlign=middle;whiteSpace=wrap;rounded=0;" vertex="1" parent="1">
          <mxGeometry x="350" y="755" width="60" height="30" as="geometry" />
        </mxCell>
        <mxCell id="h0d0ifMiRU4R3UAmkHMF-43" value="HV0" style="text;html=1;align=center;verticalAlign=middle;whiteSpace=wrap;rounded=0;" vertex="1" parent="1">
          <mxGeometry x="490" y="725" width="60" height="30" as="geometry" />
        </mxCell>
        <mxCell id="h0d0ifMiRU4R3UAmkHMF-44" value="HV&lt;span style=&quot;background-color: transparent; color: light-dark(rgb(0, 0, 0), rgb(255, 255, 255));&quot;&gt;2&lt;/span&gt;" style="text;html=1;align=center;verticalAlign=middle;whiteSpace=wrap;rounded=0;" vertex="1" parent="1">
          <mxGeometry x="510" y="560" width="60" height="30" as="geometry" />
        </mxCell>
        <mxCell id="h0d0ifMiRU4R3UAmkHMF-45" value="HV1" style="text;html=1;align=center;verticalAlign=middle;whiteSpace=wrap;rounded=0;rotation=0;" vertex="1" parent="1">
          <mxGeometry x="380" y="670" width="60" height="30" as="geometry" />
        </mxCell>
        <mxCell id="h0d0ifMiRU4R3UAmkHMF-46" value="HO0" style="text;html=1;align=center;verticalAlign=middle;whiteSpace=wrap;rounded=0;" vertex="1" parent="1">
          <mxGeometry x="270" y="530" width="60" height="30" as="geometry" />
        </mxCell>
        <mxCell id="h0d0ifMiRU4R3UAmkHMF-47" value="HO2" style="text;html=1;align=center;verticalAlign=middle;whiteSpace=wrap;rounded=0;" vertex="1" parent="1">
          <mxGeometry x="240" y="720" width="60" height="30" as="geometry" />
        </mxCell>
        <mxCell id="h0d0ifMiRU4R3UAmkHMF-48" value="HO1" style="text;html=1;align=center;verticalAlign=middle;whiteSpace=wrap;rounded=0;rotation=0;" vertex="1" parent="1">
          <mxGeometry x="380" y="605" width="60" height="30" as="geometry" />
        </mxCell>
        <mxCell id="h0d0ifMiRU4R3UAmkHMF-49" value="" style="endArrow=classic;html=1;rounded=0;exitX=0.938;exitY=0.756;exitDx=0;exitDy=0;dashed=1;dashPattern=1 1;exitPerimeter=0;entryX=0.025;entryY=0.706;entryDx=0;entryDy=0;entryPerimeter=0;" edge="1" parent="1" source="h0d0ifMiRU4R3UAmkHMF-31" target="h0d0ifMiRU4R3UAmkHMF-30">
          <mxGeometry width="50" height="50" relative="1" as="geometry">
            <mxPoint x="400" y="750" as="sourcePoint" />
            <mxPoint x="620" y="670" as="targetPoint" />
          </mxGeometry>
        </mxCell>
        <mxCell id="h0d0ifMiRU4R3UAmkHMF-50" value="" style="endArrow=classic;html=1;rounded=0;exitX=0.031;exitY=0.281;exitDx=0;exitDy=0;entryX=0.988;entryY=0.288;entryDx=0;entryDy=0;dashed=1;dashPattern=1 1;entryPerimeter=0;exitPerimeter=0;" edge="1" parent="1" source="h0d0ifMiRU4R3UAmkHMF-30" target="h0d0ifMiRU4R3UAmkHMF-31">
          <mxGeometry width="50" height="50" relative="1" as="geometry">
            <mxPoint x="290" y="670" as="sourcePoint" />
            <mxPoint x="734" y="670" as="targetPoint" />
          </mxGeometry>
        </mxCell>
        <mxCell id="h0d0ifMiRU4R3UAmkHMF-51" value="FO" style="text;html=1;align=center;verticalAlign=middle;whiteSpace=wrap;rounded=0;" vertex="1" parent="1">
          <mxGeometry x="310" y="580" width="60" height="30" as="geometry" />
        </mxCell>
        <mxCell id="h0d0ifMiRU4R3UAmkHMF-52" value="FV" style="text;html=1;align=center;verticalAlign=middle;whiteSpace=wrap;rounded=0;" vertex="1" parent="1">
          <mxGeometry x="450" y="690" width="60" height="30" as="geometry" />
        </mxCell>
      </root>
    </mxGraphModel>
  </diagram>
</mxfile>
